<svg width="1001" height="300" viewBox="0 0 1001 300" fill="none" xmlns="http://www.w3.org/2000/svg">
<g clip-path="url(#clip0_2210_8976)">
<path d="M281.758 210.282C271.365 210.282 262.414 208.042 254.871 203.528C247.327 199.014 241.561 192.694 237.471 184.602C233.415 176.51 231.37 167.08 231.37 156.313C231.37 145.547 233.415 136.15 237.471 128.025C241.528 119.933 247.327 113.613 254.871 109.099C262.414 104.585 271.365 102.345 281.758 102.345C292.15 102.345 301.101 104.585 308.645 109.099C316.188 113.613 321.954 119.933 326.044 128.025C330.1 136.117 332.145 145.547 332.145 156.313C332.145 167.08 330.1 176.477 326.044 184.602C321.987 192.727 316.188 199.014 308.645 203.528C301.101 208.042 292.15 210.282 281.758 210.282ZM281.758 191.858C288.362 191.958 293.827 190.554 298.218 187.611C302.61 184.669 305.895 180.522 308.075 175.172C310.254 169.789 311.36 163.503 311.36 156.313C311.36 149.124 310.254 142.871 308.075 137.588C305.895 132.305 302.61 128.226 298.218 125.283C293.827 122.341 288.362 120.836 281.758 120.736C275.153 120.635 269.689 122.073 265.297 124.982C260.905 127.891 257.653 132.071 255.441 137.421C253.261 142.805 252.155 149.091 252.155 156.28C252.155 163.469 253.261 169.722 255.441 175.005C257.62 180.288 260.905 184.401 265.297 187.31C269.689 190.219 275.153 191.758 281.758 191.858Z" fill="black"/>
<path d="M369.927 208.109V122.742H337.173V104.452H422.327V122.742H389.573V208.109H369.961H369.927Z" fill="black"/>
<path d="M436.006 208.109V104.485H479.89C480.896 104.485 482.27 104.518 483.98 104.585C485.69 104.652 487.198 104.819 488.573 105.053C494.775 106.023 499.871 108.063 503.827 111.173C507.783 114.282 510.699 118.228 512.577 122.943C514.454 127.657 515.393 132.941 515.393 138.725C515.393 144.51 514.454 149.793 512.543 154.508C510.632 159.223 507.716 163.168 503.76 166.278C499.804 169.388 494.741 171.428 488.573 172.397C487.232 172.598 485.69 172.732 483.946 172.832C482.203 172.932 480.862 172.966 479.89 172.966H455.651V208.075H436.039L436.006 208.109ZM455.618 154.709H478.985C479.991 154.709 481.097 154.675 482.304 154.575C483.511 154.475 484.617 154.274 485.623 154.006C488.271 153.304 490.316 152.067 491.758 150.362C493.199 148.656 494.205 146.75 494.741 144.677C495.278 142.604 495.58 140.598 495.58 138.725C495.58 136.853 495.311 134.88 494.741 132.773C494.172 130.7 493.199 128.794 491.758 127.089C490.316 125.384 488.271 124.18 485.623 123.444C484.617 123.143 483.511 122.976 482.304 122.876C481.097 122.776 479.991 122.742 478.985 122.742H455.618V154.709Z" fill="black"/>
<path d="M533.428 208.109V104.485H553.04V189.818H597.762V208.109H533.394H533.428Z" fill="black"/>
<path d="M612.214 208.109V104.485H680.035V122.776H631.826V144.945H671.352V163.235H631.826V189.852H680.035V208.142H612.214V208.109Z" fill="black"/>
<path d="M738.769 210.282C731.058 210.282 724.118 208.911 717.95 206.203C711.781 203.494 706.686 199.615 702.73 194.533C698.774 189.45 696.259 183.432 695.187 176.443L715.67 173.434C717.112 179.386 720.096 183.967 724.621 187.177C729.147 190.387 734.277 191.992 740.076 191.992C743.295 191.992 746.413 191.49 749.463 190.487C752.481 189.484 754.995 187.979 756.939 186.04C758.884 184.067 759.856 181.659 759.856 178.784C759.856 177.714 759.688 176.711 759.387 175.741C759.085 174.771 758.549 173.835 757.845 172.966C757.107 172.096 756.101 171.294 754.76 170.525C753.419 169.755 751.777 169.053 749.732 168.451L722.744 160.527C720.733 159.958 718.386 159.122 715.704 158.086C713.022 157.016 710.44 155.511 707.96 153.538C705.445 151.565 703.367 148.957 701.724 145.747C700.048 142.504 699.243 138.424 699.243 133.475C699.243 126.52 700.986 120.736 704.506 116.121C708.027 111.507 712.72 108.096 718.587 105.822C724.454 103.582 730.958 102.479 738.065 102.512C745.239 102.612 751.642 103.85 757.241 106.19C762.873 108.531 767.567 111.975 771.389 116.456C775.177 120.936 777.926 126.42 779.602 132.907L758.381 136.518C757.61 133.175 756.202 130.332 754.123 128.025C752.045 125.718 749.597 123.979 746.714 122.775C743.865 121.572 740.847 120.936 737.73 120.836C734.645 120.736 731.762 121.17 729.047 122.107C726.331 123.043 724.118 124.414 722.409 126.186C720.699 127.958 719.861 130.065 719.861 132.506C719.861 134.746 720.565 136.585 721.939 138.023C723.347 139.427 725.091 140.564 727.203 141.434C729.315 142.303 731.494 143.005 733.707 143.607L751.743 148.489C754.425 149.191 757.409 150.161 760.694 151.331C763.98 152.502 767.097 154.14 770.115 156.213C773.132 158.286 775.613 161.062 777.557 164.439C779.502 167.816 780.474 172.163 780.474 177.379C780.474 182.93 779.3 187.812 776.987 191.958C774.641 196.105 771.523 199.549 767.567 202.257C763.611 204.966 759.152 207.005 754.19 208.343C749.195 209.68 744.066 210.349 738.769 210.349V210.282Z" fill="black"/>
<path d="M839.915 210.282C832.204 210.282 825.265 208.911 819.096 206.203C812.927 203.494 807.832 199.615 803.876 194.533C799.92 189.45 797.405 183.432 796.333 176.443L816.816 173.434C818.258 179.386 821.242 183.967 825.767 187.177C830.293 190.387 835.423 191.992 841.222 191.992C844.441 191.992 847.559 191.49 850.609 190.487C853.627 189.484 856.141 187.979 858.085 186.04C860.03 184.067 861.002 181.659 861.002 178.784C861.002 177.714 860.834 176.711 860.533 175.741C860.231 174.771 859.695 173.835 858.991 172.966C858.253 172.096 857.247 171.294 855.906 170.525C854.565 169.755 852.923 169.053 850.878 168.451L823.89 160.527C821.878 159.958 819.532 159.122 816.85 158.086C814.168 157.016 811.586 155.511 809.105 153.538C806.591 151.565 804.513 148.957 802.87 145.747C801.194 142.504 800.389 138.424 800.389 133.475C800.389 126.52 802.132 120.736 805.652 116.121C809.173 111.507 813.866 108.096 819.733 105.822C825.6 103.582 832.104 102.479 839.211 102.512C846.385 102.612 852.788 103.85 858.387 106.19C864.019 108.531 868.713 111.975 872.535 116.456C876.323 120.936 879.072 126.42 880.748 132.907L859.527 136.518C858.756 133.175 857.348 130.332 855.269 128.025C853.191 125.718 850.743 123.979 847.86 122.775C845.011 121.572 841.993 120.936 838.876 120.836C835.791 120.736 832.908 121.17 830.193 122.107C827.477 123.043 825.264 124.414 823.555 126.186C821.845 127.958 821.007 130.065 821.007 132.506C821.007 134.746 821.711 136.585 823.085 138.023C824.493 139.427 826.237 140.564 828.349 141.434C830.461 142.303 832.64 143.005 834.853 143.607L852.889 148.489C855.571 149.191 858.555 150.161 861.84 151.331C865.126 152.502 868.243 154.14 871.261 156.213C874.278 158.286 876.759 161.062 878.703 164.439C880.648 167.816 881.62 172.163 881.62 177.379C881.62 182.93 880.446 187.812 878.133 191.958C875.787 196.105 872.669 199.549 868.713 202.257C864.757 204.966 860.298 207.005 855.336 208.343C850.341 209.68 845.212 210.349 839.915 210.349V210.282Z" fill="black"/>
<path d="M189.498 131.202V215.799L149.637 239.875V152.267C149.637 140.497 143.301 129.664 133.009 123.879L57.8462 81.5465L98.7801 57.4713L171.227 99.5026C182.559 106.056 189.498 118.161 189.498 131.202Z" fill="black"/>
<path d="M136.764 203.561V232.585L57.8462 186.842L82.0176 172.063L136.764 203.561Z" fill="black"/>
<path d="M57.8462 81.5485V186.842L82.0176 172.063L82.3517 95.3366L57.8462 81.5485Z" fill="black"/>
<path d="M121.343 151.331C120.639 152.334 119.532 153.003 118.225 153.237L119.197 169.923L106.189 162.433L108.804 149.793C106.055 147.085 105.15 143.507 106.793 141.2C108.737 138.424 113.565 138.458 117.588 141.266C121.611 144.075 123.287 148.589 121.376 151.365L121.343 151.331Z" fill="black"/>
</g>
<defs>
<clipPath id="clip0_2210_8976">
<rect width="885.057" height="183.908" fill="white" transform="translate(57.8462 57.4713)"/>
</clipPath>
</defs>
</svg>
